HIERARCHY
ROOT Hips
{
	OFFSET 0.000000 0.000000 0.000000
	CHANNELS 6 Xposition Yposition Zposition Xrotation Yrotation Zrotation
	JOINT LeftUpLeg_virtual
	{
		OFFSET 0.000000 0.000000 0.000000
		CHANNELS 3 Xrotation Yrotation Zrotation
		JOINT LeftUpLeg
		{
			OFFSET 10.205400 -3.823500 0.155100
			CHANNELS 3 Xrotation Yrotation Zrotation
			JOINT LeftLeg
			{
				OFFSET 0.708757 -12.982077 0.567790
				CHANNELS 3 Xrotation Yrotation Zrotation
				JOINT LeftFoot
				{
					OFFSET -0.708756 -10.717838 -2.184338
					CHANNELS 3 Xrotation Yrotation Zrotation
					JOINT LeftToeBase
					{
						OFFSET 0.108149 -7.191104 7.560241
						CHANNELS 3 Xrotation Yrotation Zrotation
						JOINT LeftToe_End
						{
							OFFSET 0.070230 0.081724 4.490308
							CHANNELS 3 Xrotation Yrotation Zrotation
							End Site
							{
								OFFSET 0 0 0
							}
						}
					}
				}
			}
		}
	}
	JOINT RightUpLeg_virtual
	{
		OFFSET 0.000000 0.000000 0.000000
		CHANNELS 3 Xrotation Yrotation Zrotation
		JOINT RightUpLeg
		{
			OFFSET -10.205400 -3.823500 0.005500
			CHANNELS 3 Xrotation Yrotation Zrotation
			JOINT RightLeg
			{
				OFFSET -0.708756 -12.982134 0.610632
				CHANNELS 3 Xrotation Yrotation Zrotation
				JOINT RightFoot
				{
					OFFSET 0.708754 -10.717769 -1.945823
					CHANNELS 3 Xrotation Yrotation Zrotation
					JOINT RightToeBase
					{
						OFFSET -0.108140 -7.191069 7.372968
						CHANNELS 3 Xrotation Yrotation Zrotation
						JOINT RightToe_End
						{
							OFFSET -0.070227 0.081735 4.479403
							CHANNELS 3 Xrotation Yrotation Zrotation
							End Site
							{
								OFFSET 0 0 0
							}
						}
					}
				}
			}
		}
	}
	JOINT Spine_virtual
	{
		OFFSET 0.000000 0.000000 0.000000
		CHANNELS 3 Xrotation Yrotation Zrotation
		JOINT Spine
		{
			OFFSET 0.000000 6.876099 0.125700
			CHANNELS 3 Xrotation Yrotation Zrotation
			JOINT Spine1
			{
				OFFSET 0.000000 5.730043 0.104720
				CHANNELS 3 Xrotation Yrotation Zrotation
				JOINT Spine1_split
				{
					OFFSET 0.000000 5.730043 0.104720
					CHANNELS 3 Xrotation Yrotation Zrotation
					JOINT Spine2
					{
						OFFSET 0.000000 5.730043 0.104720
						CHANNELS 3 Xrotation Yrotation Zrotation
						JOINT Neck_virtual
						{
							OFFSET 0.000000 0.000000 0.000000
							CHANNELS 3 Xrotation Yrotation Zrotation
							JOINT Neck
							{
								OFFSET 0.000000 10.314075 0.188496
								CHANNELS 3 Xrotation Yrotation Zrotation
								JOINT Head
								{
									OFFSET 0.000000 7.643700 -2.377400
									CHANNELS 3 Xrotation Yrotation Zrotation
									JOINT HeadTop_End
									{
										OFFSET 0.000000 43.788605 -13.619600
										CHANNELS 3 Xrotation Yrotation Zrotation
										End Site
										{
											OFFSET 0 0 0
										}
									}
								}
							}
						}
						JOINT LeftShoulder_virtual
						{
							OFFSET 0.000000 0.000000 0.000000
							CHANNELS 3 Xrotation Yrotation Zrotation
							JOINT LeftShoulder
							{
								OFFSET 2.196100 4.412489 0.087492
								CHANNELS 3 Xrotation Yrotation Zrotation
								JOINT LeftShoulder_split
								{
									OFFSET 2.196100 4.412489 0.087492
									CHANNELS 3 Xrotation Yrotation Zrotation
									JOINT LeftArm
									{
										OFFSET 8.771219 -2.981674 -0.026999
										CHANNELS 3 Xrotation Yrotation Zrotation
										JOINT LeftForeArm
										{
											OFFSET 8.512804 0.000000 -0.000000
											CHANNELS 3 Xrotation Yrotation Zrotation
											JOINT LeftHand
											{
												OFFSET 18.484802 0.000000 -0.000000
												CHANNELS 3 Xrotation Yrotation Zrotation
												End Site
												{
													OFFSET 0 0 0
												}
											}
										}
									}
								}
							}
						}
						JOINT RightShoulder_virtual
						{
							OFFSET 0.000000 0.000000 0.000000
							CHANNELS 3 Xrotation Yrotation Zrotation
							JOINT RightShoulder
							{
								OFFSET -2.196100 4.412496 0.070690
								CHANNELS 3 Xrotation Yrotation Zrotation
								JOINT RightShoulder_split
								{
									OFFSET -2.196100 4.412496 0.070690
									CHANNELS 3 Xrotation Yrotation Zrotation
									JOINT RightArm
									{
										OFFSET -8.771282 -2.981682 -0.094208
										CHANNELS 3 Xrotation Yrotation Zrotation
										JOINT RightForeArm
										{
											OFFSET -8.494598 0.000000 0.000000
											CHANNELS 3 Xrotation Yrotation Zrotation
											JOINT RightHand
											{
												OFFSET -18.483803 0.000000 0.000001
												CHANNELS 3 Xrotation Yrotation Zrotation
												End Site
												{
													OFFSET 0 0 0
												}
											}
										}
									}
								}
							}
						}
					}
				}
			}
		}
	}
}
MOTION
Frames: 9
Frame Time: 0.03333333
1.747345 28.238758 -5.364895 0.000000 0.000000 0.000000 45.729708 5.250831 -2.974981 -93.882869 3.662023 20.339018 45.732577 9.280823 -4.009325 2.165665 15.087584 -10.797975 2.273621 1.267976 -1.277355 0.000000 0.000000 0.000000 45.957700 5.000126 -1.253255 -42.980751 9.432095 -12.921588 70.019158 6.038040 -4.369409 2.863427 -3.654347 13.243979 -22.762329 -0.111406 12.927068 0.000000 0.000000 0.000000 49.094051 -2.335492 1.964752 12.015094 0.235925 -3.353613 11.541670 1.647822 -0.751004 0.116001 2.319507 1.119591 0.000000 0.000000 0.000000 27.118498 1.220250 -0.814318 -22.788737 -5.000961 6.176649 -18.671618 5.000100 -6.805875 0.000000 0.000000 0.000000 26.000467 2.294853 -0.319054 4.046464 -2.589038 7.119145 6.708570 -17.421569 -5.002845 -34.431919 -46.077853 -33.307817 2.188026 -46.670153 3.233721 0.000000 0.000000 0.000000 25.160588 0.953544 -0.074743 -2.399310 34.066716 11.407172 7.440874 9.348255 3.026812 -50.914194 22.102578 26.823656 2.698545 38.819360 -4.279540 0.000000 0.000000 0.000000 
1.683942 28.678511 -5.010426 0.000000 0.000000 0.000000 41.923049 3.311865 -1.491592 -88.496801 4.226180 19.096511 42.872520 9.808210 -3.967681 1.777295 16.091123 -11.197397 2.308586 1.353103 -1.617035 0.000000 0.000000 0.000000 42.097547 2.753227 0.323975 -47.951405 10.330414 -11.991256 73.243301 5.182117 -4.119459 -1.771208 -4.554640 10.502829 -13.678882 1.616322 10.020810 0.000000 0.000000 0.000000 44.822143 -4.016693 2.792532 12.623034 -0.002897 -3.487052 11.598232 1.602130 -0.494492 0.046654 2.293639 1.082982 0.000000 0.000000 0.000000 27.046589 1.178087 -0.564150 -22.260369 -4.831215 6.201193 -17.927479 5.520522 -6.137391 0.000000 0.000000 0.000000 25.775852 2.215265 -0.115828 4.051364 -1.887411 5.727687 5.397547 -17.703118 -4.752852 -32.900765 -44.787627 -34.808362 1.862593 -46.448900 2.742242 0.000000 0.000000 0.000000 24.985911 0.926564 0.092911 -2.586843 33.057122 12.184741 7.954229 9.146368 3.795134 -49.213637 21.909480 29.412260 2.801105 37.288837 -4.815243 0.000000 0.000000 0.000000 
1.656419 29.147287 -4.563463 0.000000 0.000000 0.000000 38.188015 0.960451 -0.204299 -82.982673 4.904173 18.264505 40.175040 10.134185 -3.987962 0.871937 16.638997 -11.451146 1.984219 1.422756 -1.823022 0.000000 0.000000 0.000000 38.286024 -0.119327 1.782262 -51.885037 11.322604 -11.148509 73.839939 4.989789 -4.306687 -4.307779 -4.262632 9.426562 -9.349379 2.120876 7.577273 0.000000 0.000000 0.000000 40.841143 -5.815565 3.423331 13.037382 -0.177673 -3.527425 11.604427 1.632732 -0.246963 -0.074542 2.183076 1.084663 0.000000 0.000000 0.000000 26.903407 1.206974 -0.364860 -21.632114 -4.597706 6.083603 -17.115249 6.018335 -5.657711 0.000000 0.000000 0.000000 25.469944 2.217981 0.067463 4.039887 -1.286116 4.280634 4.163501 -17.710728 -4.512850 -31.566624 -43.269269 -36.563932 1.446231 -45.405551 2.175798 0.000000 0.000000 0.000000 24.736339 0.990590 0.235414 -2.640695 31.949897 12.722749 8.411820 8.818472 4.381333 -47.621356 21.491935 31.619719 2.732590 35.470873 -5.185653 0.000000 0.000000 0.000000 
1.618959 29.654549 -4.018564 0.000000 0.000000 0.000000 34.609392 -1.390256 0.622284 -77.408761 5.906876 18.067076 37.603712 10.325950 -4.087286 0.129968 16.781023 -11.597595 1.793545 1.467865 -1.910749 0.000000 0.000000 0.000000 34.527006 -3.112831 2.758252 -54.331655 12.124880 -10.625403 71.467992 5.286694 -4.690725 -5.612357 -3.137478 9.374583 -8.520932 1.822160 5.661426 0.000000 0.000000 0.000000 37.233260 -7.673643 3.734265 13.261376 -0.255720 -3.439412 11.561675 1.747647 -0.009946 -0.154673 2.091849 1.135895 0.000000 0.000000 0.000000 26.678277 1.293181 -0.202108 -20.948265 -4.297501 5.847468 -16.129606 6.573891 -5.389591 0.000000 0.000000 0.000000 25.084705 2.285999 0.244629 4.019479 -0.824765 2.896750 3.297962 -17.614783 -4.249110 -30.364617 -41.699510 -38.427611 1.097426 -43.836806 1.668669 0.000000 0.000000 0.000000 24.425276 1.132804 0.365681 -2.561040 30.779216 13.016978 8.745304 8.286859 4.970670 -45.952765 20.757614 33.321085 2.544404 33.715945 -5.427442 0.000000 0.000000 0.000000 
1.553559 30.206888 -3.400003 0.000000 0.000000 0.000000 31.207418 -3.594116 0.904920 -71.843755 7.310001 18.395793 34.976337 10.595282 -4.189030 -0.185177 16.724722 -11.664432 1.937932 1.508866 -1.967498 0.000000 0.000000 0.000000 30.874248 -5.669735 3.004292 -55.219419 12.248047 -10.681562 66.550932 5.548954 -4.904786 -6.310812 -1.686406 9.654104 -9.672079 1.182322 3.999121 0.000000 0.000000 0.000000 33.921059 -9.312080 3.632065 13.346313 -0.279118 -3.223936 11.472448 1.903134 0.205281 -0.186101 1.916322 1.213768 0.000000 0.000000 0.000000 26.352451 1.396064 -0.064469 -20.279026 -3.935962 5.537169 -14.869329 7.170988 -5.302164 0.000000 0.000000 0.000000 24.618416 2.371986 0.426424 3.991519 -0.571548 1.661002 2.531333 -17.367967 -3.999610 -29.170037 -40.263405 -40.239913 0.925295 -42.070554 1.320819 0.000000 0.000000 0.000000 24.053561 1.304124 0.489797 -2.364319 29.554905 13.099242 9.111572 7.563225 5.641984 -44.250320 19.670269 34.612588 2.264460 32.356245 -5.582853 0.000000 0.000000 0.000000 
1.474155 30.790871 -2.824190 0.000000 0.000000 0.000000 28.013413 -5.501060 0.726238 -66.156277 9.011767 18.868951 32.153334 10.935463 -4.093714 -0.007024 16.524022 -11.932362 2.263212 1.562621 -2.000704 0.000000 0.000000 0.000000 27.342916 -7.501723 2.661173 -54.934269 11.596536 -11.330295 59.694050 5.459479 -4.651663 -6.468059 -0.500719 10.141921 -11.079948 0.483437 2.504806 0.000000 0.000000 0.000000 30.793358 -10.650232 3.175797 13.317471 -0.303592 -2.948721 11.352638 2.034702 0.386824 -0.224047 1.742070 1.212983 0.000000 0.000000 0.000000 25.940722 1.467347 0.055376 -19.711074 -3.528092 5.212557 -13.297951 7.816291 -5.303990 0.000000 0.000000 0.000000 24.105525 2.420582 0.624486 3.954369 -0.513112 0.673596 1.882348 -17.024057 -3.833978 -27.909406 -39.026038 -41.874578 0.953832 -40.325758 1.155523 0.000000 0.000000 0.000000 23.634225 1.438324 0.615025 -2.078678 28.288402 12.953713 9.588360 6.866396 6.492389 -42.589696 18.303657 35.642014 1.944483 31.480499 -5.698265 0.000000 0.000000 0.000000 
1.374795 31.361135 -2.299913 0.000000 0.000000 0.000000 24.909592 -6.948700 0.240878 -60.336081 10.794589 19.107931 29.278835 11.076750 -3.680350 0.543968 16.073932 -12.753528 2.516219 1.637874 -2.010004 0.000000 0.000000 0.000000 23.992030 -8.598513 1.971056 -53.662341 10.350999 -12.342586 51.912774 5.251444 -4.226235 -6.152618 0.208089 10.858689 -11.445290 -0.027151 1.133751 0.000000 0.000000 0.000000 27.634723 -11.418580 2.394479 13.235961 -0.374060 -2.721140 11.225797 2.089093 0.528171 -0.241643 1.619697 1.172194 0.000000 0.000000 0.000000 25.461251 1.469069 0.168345 -19.235128 -3.106739 4.959701 -11.426167 8.435623 -5.295730 0.000000 0.000000 0.000000 23.601003 2.387849 0.834631 3.909721 -0.595570 -0.054615 1.130857 -16.534227 -3.888740 -26.554522 -38.035309 -43.275498 1.176768 -38.734747 1.155272 0.000000 0.000000 0.000000 23.160917 1.471731 0.731137 -1.740461 26.987462 12.582666 10.145670 6.319426 7.484750 -41.143376 16.830775 36.646308 1.603625 31.072101 -5.787790 0.000000 0.000000 0.000000 
1.264404 31.877716 -1.849590 0.000000 0.000000 0.000000 21.843174 -8.012988 -0.383714 -54.583583 12.371989 18.829872 26.531359 10.856185 -2.925420 1.133782 15.290084 -14.123954 2.558309 1.724437 -1.981795 0.000000 0.000000 0.000000 20.854253 -9.117388 1.181929 -51.796401 8.722654 -13.315899 44.263007 4.832663 -3.813922 -5.306637 0.281884 12.039983 -10.829334 -0.297422 0.058253 0.000000 0.000000 0.000000 24.396749 -11.633787 1.467943 13.105707 -0.514056 -2.579194 11.107913 2.037393 0.624247 -0.215851 1.578313 1.116572 0.000000 0.000000 0.000000 24.923478 1.380526 0.266553 -18.827169 -2.722703 4.839290 -9.350909 8.902335 -5.187915 0.000000 0.000000 0.000000 23.109320 2.253814 1.048478 3.853514 -0.777198 -0.549464 0.281085 -16.079683 -4.051346 -25.079428 -37.250636 -44.372717 1.477541 -37.369942 1.237562 0.000000 0.000000 0.000000 22.627264 1.386444 0.834420 -1.408659 25.678627 12.094822 10.819412 6.042622 8.486174 -40.083535 15.358674 37.789142 1.251656 30.991519 -5.855952 0.000000 0.000000 0.000000 
1.155866 32.295143 -1.449980 0.000000 0.000000 0.000000 18.844140 -8.527699 -1.022330 -48.995870 13.580414 18.005128 24.147394 10.256815 -1.900282 1.356207 14.219603 -15.659416 2.565199 1.792527 -1.918450 0.000000 0.000000 0.000000 17.967989 -9.329225 0.508482 -49.411976 7.119113 -13.853973 37.566860 4.291999 -3.635201 -4.335898 -0.370278 13.336908 -9.667730 -0.425332 -0.493271 0.000000 0.000000 0.000000 21.052055 -11.418113 0.535563 12.918189 -0.708200 -2.534155 11.006154 1.886189 0.674447 -0.180441 1.716380 1.030414 0.000000 0.000000 0.000000 24.353415 1.209666 0.342296 -18.377343 -2.419512 4.877770 -7.200902 9.145945 -4.944384 0.000000 0.000000 0.000000 22.642567 2.033121 1.236715 3.787110 -1.018170 -0.878436 -0.553827 -15.775905 -4.201629 -23.520844 -36.574755 -45.162211 1.764521 -36.244761 1.325609 0.000000 0.000000 0.000000 22.051327 1.196939 0.908577 -1.126517 24.409399 11.626100 11.609761 5.961817 9.294009 -39.414443 13.994788 39.114478 0.894727 30.929023 -5.889082 0.000000 0.000000 0.000000 
